# xmcd
#
# Track frame offsets:
# 150
# 14642
# 25245
# 37230
# 52620
# 62855
# 73027
# 87195
# 99590
# 110092
# 119785
# 133915
# 143715
# 157407
#
# Disc length: 2334 seconds
#
#
# Revision: 0
# Processed by: cddbd v1.5.2PL0 Copyright (c) Steve Scherf et al.
# Submitted via: FreeRIP 2.95 
#
DISCID=d6091c0e
DTITLE=Almrauschklang - 1991 - Eine Riesengaudi - Eine Riesengaudi
DYEAR=1991
DGENRE=Volkstümlich
TTITLE0=Eine flotte Polka
TTITLE1=Auf fröhlicher Fahrt
TTITLE2=Viele Jahre sind vergangen
TTITLE3=Liebesmelodie
TTITLE4=Beim Rinneralm Much
TTITLE5=In der Hitte
TTITLE6=Warum bist du noch immer allein
TTITLE7=Steig heut mit mir in die Berge
TTITLE8=Beim Goglhof im Zillertal
TTITLE9=Im Schwannberger Keller
TTITLE10=Heut wolln wir noch nicht nach Hause gehn
TTITLE11=Auf der Steiner Alm
TTITLE12=Gitarrenklänge
TTITLE13=Ich möcht immer nur bei dir sein
EXTD=
EXTT0=
EXTT1=
EXTT2=
EXTT3=
EXTT4=
EXTT5=
EXTT6=
EXTT7=
EXTT8=
EXTT9=
EXTT10=
EXTT11=
EXTT12=
EXTT13=
PLAYORDER=
